<?xml version="1.0" encoding="UTF-8"?>
<svg version="1.1" xmlns="http://www.w3.org/2000/svg" width="626" height="626">
<path d="M0 0 C206.58 0 413.16 0 626 0 C626 206.58 626 413.16 626 626 C419.42 626 212.84 626 0 626 C0 419.42 0 212.84 0 0 Z " fill="#151136" transform="translate(0,0)"/>
<path d="M0 0 C2.00144945 0.00084716 4.00289984 0.00036939 6.00434875 -0.00132751 C11.41482358 -0.0021854 16.82509735 0.01540692 22.23552561 0.03639436 C27.89828875 0.05519563 33.5610569 0.05691432 39.22384644 0.06047058 C49.93688778 0.06978091 60.64983688 0.09438102 71.36283767 0.12451905 C83.56354996 0.15809456 95.76426673 0.174557 107.96501374 0.18960536 C133.05338705 0.22093145 158.14167858 0.27367227 183.22998047 0.34057617 C183.25292866 2.42955472 183.26933612 4.51860584 183.28295898 6.60766602 C183.29279312 7.77099457 183.30262726 8.93432312 183.3127594 10.13290405 C182.98132449 22.975961 173.2811804 36.6941047 164.22998047 45.34057617 C142.20073695 63.96241871 118.31566754 59.70827863 89.22998047 60.34057617 C88.73498047 147.46057617 88.73498047 147.46057617 88.22998047 236.34057617 C69.60352023 236.34057617 58.52934605 231.11232427 44.88232422 219.07495117 C43.22998047 217.34057617 43.22998047 217.34057617 43.22998047 215.34057617 C42.56998047 215.34057617 41.90998047 215.34057617 41.22998047 215.34057617 C31.02407088 201.44551744 28.06196191 188.13795852 28.11645508 171.14135742 C28.11630905 169.94050003 28.11616302 168.73964264 28.11601257 167.50239563 C28.11658709 164.23229511 28.12157908 160.96223819 28.12858653 157.6921463 C28.13486641 154.2662017 28.13542752 150.84025611 28.13661194 147.41430664 C28.13971165 140.93698448 28.14790659 134.45967934 28.15796143 127.98236465 C28.17026537 119.87911552 28.1757159 111.77586358 28.18115234 103.67260742 C28.19087287 89.22858377 28.21090826 74.78459722 28.22998047 60.34057617 C-3.45001953 60.34057617 -35.13001953 60.34057617 -67.77001953 60.34057617 C-67.77001953 43.60640822 -62.38165655 29.57390706 -50.77001953 17.34057617 C-44.47282304 11.43046372 -37.86760966 6.46116646 -29.77001953 3.34057617 C-29.18800341 3.09347239 -28.60598728 2.84636862 -28.0063343 2.59177685 C-18.95334524 -0.72588679 -9.49518885 -0.0563616 0 0 Z " fill="#50C0F1" transform="translate(254.77001953125,194.659423828125)"/>
<path d="M0 0 C0.33 0 0.66 0 1 0 C1 2.64 1 5.28 1 8 C2.19825409 7.99333817 3.39650818 7.98667633 4.631073 7.97981262 C15.90298853 7.91909567 27.17487104 7.87407273 38.44691277 7.84456348 C44.24250967 7.82888268 50.03797495 7.80760038 55.83349609 7.77368164 C61.42260157 7.74117429 67.01158017 7.7231652 72.60077286 7.71536827 C74.73711267 7.70980922 76.87344525 7.69895435 79.00973129 7.68280983 C81.99345868 7.66115021 84.97665635 7.65802826 87.96044922 7.65942383 C89.29616974 7.64324509 89.29616974 7.64324509 90.65887451 7.6267395 C93.11495972 7.63923645 93.11495972 7.63923645 97 8 C99.0140956 11.0211434 99.26836596 11.80660017 99.4140625 15.23046875 C99.45273437 16.03291016 99.49140625 16.83535156 99.53125 17.66210938 C99.5621875 18.49548828 99.593125 19.32886719 99.625 20.1875 C99.66367187 21.03248047 99.70234375 21.87746094 99.7421875 22.74804688 C99.83636279 24.83167524 99.91926675 26.91580753 100 29 C100.61875 28.01 101.2375 27.02 101.875 26 C102.57625 25.01 103.2775 24.02 104 23 C104.66 23 105.32 23 106 23 C106.226875 22.4225 106.45375 21.845 106.6875 21.25 C109.45572856 16.50446533 114.26432095 14.17216075 119.0625 11.8125 C120.08472656 11.30332031 121.10695313 10.79414063 122.16015625 10.26953125 C133.52555414 5.18871376 142.95700948 8 157 8 C156.67 66.41 156.34 124.82 156 185 C137.37353976 185 126.29936558 179.7717481 112.65234375 167.734375 C111 166 111 166 111 164 C110.34 164 109.68 164 109 164 C98.79409041 150.10494127 95.83198145 136.79738235 95.88647461 119.80078125 C95.88632858 118.59992386 95.88618256 117.39906647 95.8860321 116.16181946 C95.88660662 112.89171894 95.89159861 109.62166202 95.89860606 106.35157013 C95.90488594 102.92562553 95.90544705 99.49967994 95.90663147 96.07373047 C95.90973118 89.59640831 95.91792612 83.11910317 95.92798096 76.64178848 C95.9402849 68.53853935 95.94573543 60.43528741 95.95117188 52.33203125 C95.9608924 37.8880076 95.98092779 23.44402104 96 9 C64.32 9 32.64 9 0 9 C0 6.03 0 3.06 0 0 Z " fill="#3A95EA" transform="translate(187,246)"/>
<path d="M0 0 C0.81519019 -0.00085442 1.63038039 -0.00170885 2.47027332 -0.00258917 C5.21106472 -0.00424072 7.95179538 0.00127213 10.69258118 0.00672913 C12.65358987 0.00701109 14.61459867 0.00685308 16.5756073 0.00628662 C21.90791342 0.00599902 27.24019717 0.01188975 32.57249808 0.01886058 C38.14188763 0.0251003 43.71127766 0.02569841 49.28067017 0.02688599 C59.83099188 0.02999747 70.38130326 0.03820841 80.93162042 0.04823548 C92.94113363 0.05940227 104.95064732 0.0649085 116.96016443 0.06993091 C141.66825764 0.08039116 166.37634168 0.09798708 191.08442688 0.12025452 C190.75442688 1.11025452 190.42442688 2.10025452 190.08442688 3.12025452 C190.08442688 2.46025452 190.08442688 1.80025452 190.08442688 1.12025452 C189.09442688 1.78025452 188.10442688 2.44025452 187.08442688 3.12025452 C184.45298473 3.31364785 181.92779694 3.38982359 179.29620361 3.3742218 C178.49467521 3.37734178 177.6931468 3.38046176 176.86732966 3.38367629 C174.17261286 3.39167482 171.47812009 3.38532548 168.78340149 3.37904358 C166.85519275 3.3817526 164.92698504 3.38531302 162.9987793 3.3896637 C157.75516254 3.39879997 152.51162426 3.3952385 147.26800609 3.38890553 C141.78896922 3.38385267 136.30993922 3.38853492 130.8309021 3.39167786 C121.62983489 3.39531928 112.42879977 3.39051346 103.22773743 3.3809967 C92.57755843 3.3701086 81.92745598 3.37363962 71.27727884 3.38464952 C62.14519657 3.39371352 53.01313739 3.39501212 43.88105208 3.38977218 C38.42155264 3.386648 32.96208923 3.38625543 27.50259209 3.39284515 C22.37183978 3.39860523 17.24118658 3.39464637 12.11044502 3.38305664 C10.22297963 3.380403 8.33550596 3.38118706 6.44804382 3.38558197 C3.88047055 3.39101115 1.31321903 3.38423559 -1.2543335 3.3742218 C-2.00908732 3.37868325 -2.76384114 3.38314469 -3.5414663 3.38774133 C-8.68727277 3.34855487 -8.68727277 3.34855487 -10.91557312 1.12025452 C-7.2298903 -0.10830642 -3.83717729 -0.01459988 0 0 Z " fill="#59CDEE" transform="translate(246.9155731201172,194.87974548339844)"/>
<path d="M0 0 C0.33 0 0.66 0 1 0 C1.33 5.94 1.66 11.88 2 18 C2.99 16.35 3.98 14.7 5 13 C5.33 13.99 5.66 14.98 6 16 C5.04504326 17.69287785 4.0409066 19.35857037 3 21 C2.30420546 23.19130534 2.30420546 23.19130534 2 25 C2.66 25.33 3.32 25.66 4 26 C3.88201056 29.96952899 3.75778201 33.93880781 3.62768555 37.90795898 C3.58428777 39.25914147 3.5426163 40.61038053 3.50268555 41.96166992 C3.44510048 43.90036701 3.38085702 45.83886276 3.31640625 47.77734375 C3.27974854 48.94515381 3.24309082 50.11296387 3.20532227 51.31616211 C3 54 3 54 2 55 C1.8466865 56.99274158 1.76152381 58.99075538 1.70288086 60.98852539 C1.66291489 62.26977798 1.62294891 63.55103058 1.58177185 64.87110901 C1.5426932 66.27995525 1.50371967 67.6888044 1.46484375 69.09765625 C1.42185351 70.53113553 1.37843706 71.96460209 1.33460999 73.39805603 C1.2202086 77.17746507 1.11162018 80.95701993 1.00421143 84.7366333 C0.89366463 88.59080229 0.77766258 92.44480656 0.66210938 96.29882812 C0.43604448 103.86573422 0.21611578 111.43280252 0 119 C-0.33 119 -0.66 119 -1 119 C-1.02335822 104.07494914 -1.04099356 89.14989969 -1.05181217 74.22483444 C-1.05696891 67.29490294 -1.06399977 60.3649828 -1.07543945 53.43505859 C-1.08646936 46.75018406 -1.09228073 40.06532377 -1.09487724 33.38043976 C-1.09672819 30.8271084 -1.1003425 28.2737777 -1.10573006 25.72045135 C-1.11296461 22.15053397 -1.11398991 18.5806657 -1.11352539 15.01074219 C-1.11712067 13.94978836 -1.12071594 12.88883453 -1.12442017 11.79573059 C-1.1230455 10.82260422 -1.12167084 9.84947784 -1.12025452 8.84686279 C-1.12117631 8.00250042 -1.1220981 7.15813805 -1.12304783 6.28818893 C-1.00340751 4.0633658 -0.61949596 2.13474646 0 0 Z " fill="#3AACEF" transform="translate(285,257)"/>
<path d="M0 0 C1.16015625 0.00322266 2.3203125 0.00644531 3.515625 0.00976562 C5.32546875 0.02233398 5.32546875 0.02233398 7.171875 0.03515625 C9.00492187 0.04192383 9.00492187 0.04192383 10.875 0.04882812 C13.89067446 0.0606081 16.90624998 0.07705772 19.921875 0.09765625 C19.921875 2.40765625 19.921875 4.71765625 19.921875 7.09765625 C19.261875 7.42765625 18.601875 7.75765625 17.921875 8.09765625 C17.921875 7.43765625 17.921875 6.77765625 17.921875 6.09765625 C17.261875 6.09765625 16.601875 6.09765625 15.921875 6.09765625 C15.921875 5.43765625 15.921875 4.77765625 15.921875 4.09765625 C11.48411825 4.23626651 7.04674723 4.38477489 2.609375 4.53515625 C1.34673828 4.57447266 0.08410156 4.61378906 -1.21679688 4.65429688 C-3.02954102 4.71713867 -3.02954102 4.71713867 -4.87890625 4.78125 C-6.55206909 4.83623657 -6.55206909 4.83623657 -8.2590332 4.89233398 C-11.15686071 4.98696834 -11.15686071 4.98696834 -14.078125 6.09765625 C-14.408125 7.08765625 -14.738125 8.07765625 -15.078125 9.09765625 C-17.388125 9.09765625 -19.698125 9.09765625 -22.078125 9.09765625 C-22.078125 8.43765625 -22.078125 7.77765625 -22.078125 7.09765625 C-20.16400943 6.11351192 -18.2467283 5.13552276 -16.328125 4.16015625 C-15.26078125 3.61488281 -14.1934375 3.06960938 -13.09375 2.5078125 C-8.54415175 0.38034492 -5.02418036 -0.02462834 0 0 Z " fill="#1368E2" transform="translate(322.078125,253.90234375)"/>
<path d="M0 0 C0 0.66 0 1.32 0 2 C-0.66 2 -1.32 2 -2 2 C-2 2.66 -2 3.32 -2 4 C-2.66 4 -3.32 4 -4 4 C-4.33 4.99 -4.66 5.98 -5 7 C-7.31 7 -9.62 7 -12 7 C-12 6.34 -12 5.68 -12 5 C-10.56705502 4.15885829 -9.12845595 3.32734313 -7.6875 2.5 C-6.88699219 2.0359375 -6.08648437 1.571875 -5.26171875 1.09375 C-3 0 -3 0 0 0 Z " fill="#1B75E6" transform="translate(312,256)"/>
<path d="M0 0 C0 0.99 0 1.98 0 3 C-1.97746603 3.73080266 -3.98072489 4.39421747 -6 5 C-6.66 4.67 -7.32 4.34 -8 4 C-5.37801226 1.84622436 -3.35595828 0.59927826 0 0 Z M-10 5 C-9.34 5.33 -8.68 5.66 -8 6 C-8.99 6 -9.98 6 -11 6 C-10.67 5.67 -10.34 5.34 -10 5 Z " fill="#4CBCDD" transform="translate(217,204)"/>
<path d="M0 0 C0.33 0.99 0.66 1.98 1 3 C-0.875 6.1875 -0.875 6.1875 -3 9 C-3.33 9 -3.66 9 -4 9 C-4 7.02 -4 5.04 -4 3 C-2.68 2.67 -1.36 2.34 0 2 C0 1.34 0 0.68 0 0 Z " fill="#59B7E7" transform="translate(430,222)"/>
</svg>
