<svg xmlns="http://www.w3.org/2000/svg" width="626" height="626" viewBox="0 0 626 626">
  <defs>
    <clipPath id="roundClip">
      <circle cx="313" cy="313" r="313"/>
    </clipPath>
  </defs>

  <g clip-path="url(#roundClip)">
    <path d="M0 0 C206.58 0 413.16 0 626 0 C626 206.58 626 413.16 626 626 C419.42 626 212.84 626 0 626 C0 419.42 0 212.84 0 0 Z" fill="#151136" transform="translate(0,0)"/>
    <path d="M0 0 C2.00144945 0.00084716 4.00289984 0.00036939 6.00434875 -0.00132751 C11.41482358 -0.0021854 16.82509735 0.01540692 22.23552561 0.03639436 C27.89828875 0.05519563 33.5610569 0.05691432 39.22384644 0.06047058 C49.93688778 0.06978091 60.64983688 0.09438102 71.36283767 0.12451905 C83.56354996 0.15809456 95.76426673 0.174557 107.96501374 0.18960536 C133.05338705 0.22093145 158.14167858 0.27367227 183.22998047 0.34057617 C183.25292866 2.42955472 183.26933612 4.51860584 183.28295898 6.60766602 C183.29279312 7.77099457 183.30262726 8.93432312 183.3127594 10.13290405 C182.98132449 22.975961 173.2811804 36.6941047 164.22998047 45.34057617 C142.20073695 63.96241871 118.31566754 59.70827863 89.22998047 60.34057617 C88.73498047 147.46057617 88.73498047 147.46057617 88.22998047 236.34057617 C69.60352023 236.34057617 58.52934605 231.11232427 44.88232422 219.07495117 C43.22998047 217.34057617 43.22998047 217.34057617 43.22998047 215.34057617 C42.56998047 215.34057617 41.90998047 215.34057617 41.22998047 215.34057617 C31.02407088 201.44551744 28.06196191 188.13795852 28.11645508 171.14135742 C28.11630905 169.94050003 28.11616302 168.73964264 28.11601257 167.50239563 C28.11658709 164.23229511 28.12157908 160.96223819 28.12858653 157.6921463 C28.13486641 154.2662017 28.13542752 150.84025611 28.13661194 147.41430664 C28.13971165 140.93698448 28.14790659 134.45967934 28.15796143 127.98236465 C28.17026537 119.87911552 28.1757159 111.77586358 28.18115234 103.67260742 C28.19087287 89.22858377 28.21090826 74.78459722 28.22998047 60.34057617 C-3.45001953 60.34057617 -35.13001953 60.34057617 -67.77001953 60.34057617 C-67.77001953 43.60640822 -62.38165655 29.57390706 -50.77001953 17.34057617 C-44.47282304 11.43046372 -37.86760966 6.46116646 -29.77001953 3.34057617 C-29.18800341 3.09347239 -28.60598728 2.84636862 -28.0063343 2.59177685 C-18.95334524 -0.72588679 -9.49518885 -0.0563616 0 0 Z" fill="#50C0F1" transform="translate(254.77001953125,194.659423828125)"/>
    <path d="M0 0 C0.33 0 0.66 0 1 0 C1 2.64 1 5.28 1 8 C2.19825409 7.99333817 3.39650818 7.98667633 4.631073 7.97981262 C15.90298853 7.91909567 27.17487104 7.87407273 38.44691277 7.84456348 C44.24250967 7.82888268 50.03797495 7.80760038 55.83349609 7.77368164 C61.42260157 7.74117429 67.01158017 7.7231652 72.60077286 7.71536827 C74.73711267 7.70980922 76.87344525 7.69895435 79.00973129 7.68280983 C81.99345868 7.66115021 84.97665635 7.65802826 87.96044922 7.65942383 C89.29616974 7.64324509 89.29616974 7.64324509 90.65887451 7.6267395 C93.11495972 7.63923645 93.11495972 7.63923645 97 8 C99.0140956 11.0211434 99.26836596 11.80660017 99.4140625 15.23046875 C99.45273437 16.03291016 99.49140625 16.83535156 99.53125 17.66210938 C99.5621875 18.49548828 99.593125 19.32886719 99.625 20.1875 C99.66367187 21.03248047 99.70234375 21.87746094 99.7421875 22.74804688 C99.83636279 24.83167524 99.91926675 26.91580753 100 29 C100.61875 28.01 101.2375 27.02 101.875 26 C102.57625 25.01 103.2775 24.02 104 23 C104.66 23 105.32 23 106 23 C106.226875 22.4225 106.45375 21.845 106.6875 21.25 C109.45572856 16.50446533 114.26432095 14.17216075 119.0625 11.8125 C120.08472656 11.30332031 121.10695313 10.79414063 122.16015625 10.26953125 C133.52555414 5.18871376 142.95700948 8 157 8 C156.67 66.41 156.34 124.82 156 185 C137.37353976 185 126.29936558 179.7717481 112.65234375 167.734375 C111 166 111 166 111 164 C110.34 164 109.68 164 109 164 C98.79409041 150.10494127 95.83198145 136.79738235 95.88647461 119.80078125 C95.88632858 118.59992386 95.88618256 117.39906647 95.8860321 116.16181946 C95.88660662 112.89171894 95.89159861 109.62166202 95.89860606 106.35157013 C95.90488594 102.92562553 95.90544705 99.49967994 95.90663147 96.07373047 C95.90973118 89.59640831 95.91792612 83.11910317 95.92798096 76.64178848 C95.9402849 68.53853935 95.94573543 60.43528741 95.95117188 52.33203125 C95.9608924 37.8880076 95.98092779 23.44402104 96 9 C64.32 9 32.64 9 0 9 C0 6.03 0 3.06 0 0 Z" fill="#3A95EA" transform="translate(187,246)"/>
    <!-- Shu yerda qolgan path larni ham xuddi shu tarzda qo‘shing -->
  </g>
</svg>
