<?xml version="1.0" encoding="UTF-8"?>
<svg version="1.1" xmlns="http://www.w3.org/2000/svg" width="100" height="100">
<path d="M0 0 C1.41052833 1.02167998 2.80740631 2.0625681 4.1875 3.125 C5.10982422 3.80175781 5.10982422 3.80175781 6.05078125 4.4921875 C15.60473917 11.99130303 22.00843233 23.43133632 23.47412109 35.48144531 C24.69051452 51.13829772 21.83005217 63.90154435 11.7578125 76.3671875 C1.88789294 86.95710119 -9.76174387 93.06313546 -24.21508789 93.71264648 C-38.78371927 93.92215871 -50.80735201 90.06794225 -61.8125 80.125 C-73.59797609 67.79464745 -77.45792748 54.77524961 -77.125 38.09375 C-76.66781121 27.9898777 -72.9105158 20.04629188 -66.8125 12.125 C-66.13574219 11.20267578 -66.13574219 11.20267578 -65.4453125 10.26171875 C-50.25020173 -9.09702406 -20.36495362 -12.94094043 0 0 Z " fill="#76CC91" transform="translate(76.8125,6.875)"/>
<path d="M0 0 C1.41052833 1.02167998 2.80740631 2.0625681 4.1875 3.125 C5.10982422 3.80175781 5.10982422 3.80175781 6.05078125 4.4921875 C15.60473917 11.99130303 22.00843233 23.43133632 23.47412109 35.48144531 C24.69051452 51.13829772 21.83005217 63.90154435 11.7578125 76.3671875 C1.88789294 86.95710119 -9.76174387 93.06313546 -24.21508789 93.71264648 C-38.78371927 93.92215871 -50.80735201 90.06794225 -61.8125 80.125 C-73.59797609 67.79464745 -77.45792748 54.77524961 -77.125 38.09375 C-76.66781121 27.9898777 -72.9105158 20.04629188 -66.8125 12.125 C-66.13574219 11.20267578 -66.13574219 11.20267578 -65.4453125 10.26171875 C-50.25020173 -9.09702406 -20.36495362 -12.94094043 0 0 Z M-55.8125 7.125 C-56.84375 7.846875 -57.875 8.56875 -58.9375 9.3125 C-66.20556468 15.63167846 -72.01834782 26.52998329 -73.01953125 36.10498047 C-73.86652745 49.36954594 -71.76043395 60.16614956 -63.8125 71.125 C-63.1525 71.455 -62.4925 71.785 -61.8125 72.125 C-60.92046875 71.42632812 -60.0284375 70.72765625 -59.109375 70.0078125 C-57.92722354 69.08836137 -56.74492408 68.16910051 -55.5625 67.25 C-54.97597656 66.78980469 -54.38945313 66.32960938 -53.78515625 65.85546875 C-53.21152344 65.41074219 -52.63789062 64.96601562 -52.046875 64.5078125 C-51.52319336 64.09934082 -50.99951172 63.69086914 -50.45996094 63.27001953 C-48.8125 62.125 -48.8125 62.125 -44.8125 60.125 C-44.4825 51.215 -44.1525 42.305 -43.8125 33.125 C-47.26647435 36.57897435 -48.37625905 37.81627714 -49.8125 42.125 C-50.4725 41.795 -51.1325 41.465 -51.8125 41.125 C-52.4453125 38.83984375 -52.4453125 38.83984375 -52.9375 36.0625 C-53.10507812 35.14339844 -53.27265625 34.22429688 -53.4453125 33.27734375 C-53.56648438 32.56707031 -53.68765625 31.85679688 -53.8125 31.125 C-56.96677735 32.96499512 -59.9106552 34.91141326 -62.8125 37.125 C-61.65544313 27.26411234 -61.65544313 27.26411234 -58.5 23 C-55.80217408 21.11779587 -54.06348503 20.40365586 -50.8125 20.125 C-50.8125 19.465 -50.8125 18.805 -50.8125 18.125 C-53.1225 17.135 -55.4325 16.145 -57.8125 15.125 C-54.03777409 12.60851606 -51.24791236 12.48474173 -46.8125 13.125 C-44.9375 14.625 -44.9375 14.625 -43.8125 16.125 C-43.1525 16.125 -42.4925 16.125 -41.8125 16.125 C-41.214375 15.3 -40.61625 14.475 -40 13.625 C-37.8125 11.125 -37.8125 11.125 -35.0625 10.8125 C-33.94875 10.9671875 -33.94875 10.9671875 -32.8125 11.125 C-33.1425 12.445 -33.4725 13.765 -33.8125 15.125 C-32.89017578 15.27195312 -32.89017578 15.27195312 -31.94921875 15.421875 C-25.34321661 16.64403808 -25.34321661 16.64403808 -22.8125 18.9375 C-21.71771318 21.33234617 -21.17416074 23.52104265 -20.8125 26.125 C-21.8025 25.465 -22.7925 24.805 -23.8125 24.125 C-26.43781524 23.95786431 -26.43781524 23.95786431 -28.8125 24.125 C-28.503125 24.95 -28.19375 25.775 -27.875 26.625 C-26.69372417 30.51626155 -26.23025832 34.08666953 -25.8125 38.125 C-26.57175781 37.55910156 -27.33101562 36.99320313 -28.11328125 36.41015625 C-29.60408203 35.30994141 -29.60408203 35.30994141 -31.125 34.1875 C-32.60419922 33.09115234 -32.60419922 33.09115234 -34.11328125 31.97265625 C-36.73021863 29.99969344 -36.73021863 29.99969344 -39.8125 29.125 C-42.14957675 36.57443215 -43.84275679 45.71321032 -40.48046875 53.01953125 C-39.93003906 53.71433594 -39.37960938 54.40914062 -38.8125 55.125 C-37.8225 55.125 -36.8325 55.125 -35.8125 55.125 C-35.8125 55.785 -35.8125 56.445 -35.8125 57.125 C-33.8325 56.63 -33.8325 56.63 -31.8125 56.125 C-30.66302105 52.57206507 -30.7256063 51.32523331 -32.25 47.8125 C-32.765625 46.925625 -33.28125 46.03875 -33.8125 45.125 C-33.1525 45.125 -32.4925 45.125 -31.8125 45.125 C-31.585625 45.785 -31.35875 46.445 -31.125 47.125 C-30.691875 48.115 -30.25875 49.105 -29.8125 50.125 C-29.56371094 50.82238281 -29.31492188 51.51976562 -29.05859375 52.23828125 C-27.88547246 54.82834904 -27.03301634 56.3178075 -24.8125 58.125 C-20.07936577 58.82879181 -15.56267339 58.58780444 -10.8125 58.125 C-10.4825 57.135 -10.1525 56.145 -9.8125 55.125 C-8.3275 56.61 -8.3275 56.61 -6.8125 58.125 C-7.8025 58.125 -8.7925 58.125 -9.8125 58.125 C-9.8125 59.115 -9.8125 60.105 -9.8125 61.125 C-7.52930472 63.13858037 -7.52930472 63.13858037 -4.625 65.0625 C-0.91398255 67.64083743 2.6874886 70.26484443 6.1875 73.125 C12.31103641 70.69145637 14.65116541 64.51750093 17.23828125 58.8046875 C20.93475661 48.46857155 20.73581634 35.13808448 16.1875 25.125 C8.71928406 10.74653828 -1.27329358 2.53931456 -16.59765625 -2.45703125 C-31.36204825 -5.2432569 -43.92033734 -1.75323538 -55.8125 7.125 Z " fill="#81502E" transform="translate(76.8125,6.875)"/>
<path d="M0 0 C1.41052833 1.02167998 2.80740631 2.0625681 4.1875 3.125 C5.10982422 3.80175781 5.10982422 3.80175781 6.05078125 4.4921875 C15.60473917 11.99130303 22.00843233 23.43133632 23.47412109 35.48144531 C24.69051452 51.13829772 21.83005217 63.90154435 11.7578125 76.3671875 C1.88789294 86.95710119 -9.76174387 93.06313546 -24.21508789 93.71264648 C-38.78371927 93.92215871 -50.80735201 90.06794225 -61.8125 80.125 C-73.59797609 67.79464745 -77.45792748 54.77524961 -77.125 38.09375 C-76.66781121 27.9898777 -72.9105158 20.04629188 -66.8125 12.125 C-66.13574219 11.20267578 -66.13574219 11.20267578 -65.4453125 10.26171875 C-50.25020173 -9.09702406 -20.36495362 -12.94094043 0 0 Z M-55.8125 7.125 C-56.84375 7.846875 -57.875 8.56875 -58.9375 9.3125 C-66.20556468 15.63167846 -72.01834782 26.52998329 -73.01953125 36.10498047 C-74.02297609 51.81964334 -70.25087058 64.05862666 -59.8125 76.125 C-53.45305923 81.58030303 -46.80635544 85.60287449 -38.8125 88.125 C-38.21308594 88.31578125 -37.61367188 88.5065625 -36.99609375 88.703125 C-24.81707625 91.05613732 -12.64935759 88.95171444 -2.125 82.4375 C8.75064635 74.58176997 16.87560267 64.5841852 19.1875 51.125 C20.35077734 35.46059415 16.98048804 24.74839972 7.9375 11.9375 C-0.7879298 3.01376498 -12.09241569 -2.8457041 -24.65039062 -3.16748047 C-37.05694765 -3.27912859 -45.80247725 -0.34810147 -55.8125 7.125 Z " fill="#030403" transform="translate(76.8125,6.875)"/>
<path d="M0 0 C0.33 0 0.66 0 1 0 C1.33 1.98 1.66 3.96 2 6 C2.60585938 5.90460937 3.21171875 5.80921875 3.8359375 5.7109375 C9.50543244 4.96081971 14.05672957 5.21867564 19.609375 6.51953125 C23.13817497 7.22875085 26.40689313 7.12390024 30 7 C31.32 7 32.64 7 34 7 C34.83015625 6.89558594 35.6603125 6.79117188 36.515625 6.68359375 C41.03750152 6.27662486 43.84700632 6.07435719 47.49609375 9.00390625 C49.47669996 11.25989086 51.29159651 13.53284998 53 16 C54.65 15.34 56.3 14.68 58 14 C58.33 10.04 58.66 6.08 59 2 C59.33 2 59.66 2 60 2 C60.6164655 15.49374486 59.12664782 25.86024627 51.5625 37.453125 C50 39 50 39 46 39 C43.67517032 37.41854179 41.54200155 35.8352814 39.375 34.0625 C35.39032542 30.72574317 35.39032542 30.72574317 31 28 C31 27.01 31 26.02 31 25 C31.99 25 32.98 25 34 25 C33.01 24.01 32.02 23.02 31 22 C30.67 22.99 30.34 23.98 30 25 C25.17560887 25.66243373 20.7943353 25.96723231 16 25 C12.64805323 21.79539155 10.71269492 18.28817599 9 14 C9 13.34 9 12.68 9 12 C8.34 12 7.68 12 7 12 C7.53625 12.86625 8.0725 13.7325 8.625 14.625 C10 18 10 18 9.1875 21.375 C8.795625 22.24125 8.40375 23.1075 8 24 C7.01 24 6.02 24 5 24 C5 23.34 5 22.68 5 22 C4.38125 21.9175 3.7625 21.835 3.125 21.75 C1 21 1 21 -0.12109375 19.359375 C-1.25863763 16.30570166 -1.2285329 13.75279004 -1.1875 10.5 C-1.18105469 9.3759375 -1.17460938 8.251875 -1.16796875 7.09375 C-1.0295553 4.54436746 -0.74334614 2.4262818 0 0 Z " fill="#FC9051" transform="translate(36,40)"/>
<path d="M0 0 C0.66 0 1.32 0 2 0 C8.08818932 9.67587231 7.51257653 19.0080811 7 30 C4.66666667 30 2.33333333 30 0 30 C-1.53515625 28.25 -1.53515625 28.25 -3.0625 26 C-5.2680545 23.28840919 -6.2851665 22.13770164 -9.7578125 21.46875 C-12.54126279 21.49844014 -15.23452178 21.69507744 -18 22 C-19.32 22 -20.64 22 -22 22 C-23.155 22.04125 -24.31 22.0825 -25.5 22.125 C-29.11152495 22.14521376 -32.45351557 21.60470477 -36 20.9375 C-41.04661511 20.01644477 -44.97258901 20.1462887 -50 21 C-51 20 -51 20 -51.09765625 17.71484375 C-51.08605469 16.79832031 -51.07445312 15.88179687 -51.0625 14.9375 C-51.05347656 14.01839844 -51.04445312 13.09929688 -51.03515625 12.15234375 C-51.02355469 11.44207031 -51.01195312 10.73179688 -51 10 C-47.65291949 11.54841575 -44.75332488 13.49105864 -41.75 15.625 C-40.85796875 16.25664063 -39.9659375 16.88828125 -39.046875 17.5390625 C-38.03367187 18.26222656 -38.03367187 18.26222656 -37 19 C-37.30975468 17.22868439 -37.62290425 15.45796222 -37.9375 13.6875 C-38.11152344 12.70136719 -38.28554688 11.71523438 -38.46484375 10.69921875 C-38.95746847 7.91810787 -38.95746847 7.91810787 -40 5 C-36.28400809 4.79913557 -35.22791555 4.8480563 -32 7 C-32 5.02 -32 3.04 -32 1 C-31.06615479 1.00523682 -30.13230957 1.01047363 -29.17016602 1.01586914 C-25.71687204 1.0328762 -22.26362233 1.04543302 -18.81030273 1.05493164 C-17.31355082 1.05997121 -15.81680384 1.06680287 -14.32006836 1.07543945 C-12.17300193 1.08752159 -10.02600038 1.09323191 -7.87890625 1.09765625 C-6.5854126 1.10289307 -5.29191895 1.10812988 -3.95922852 1.11352539 C-1.11347596 1.33996932 -1.11347596 1.33996932 0 0 Z " fill="#F7E276" transform="translate(88,26)"/>
<path d="M0 0 C1.65 0.33 3.3 0.66 5 1 C5 4.63 5 8.26 5 12 C6.299375 11.01 7.59875 10.02 8.9375 9 C12.875 6 12.875 6 14 6 C14.12117188 6.71027344 14.24234375 7.42054687 14.3671875 8.15234375 C14.53476562 9.07144531 14.70234375 9.99054687 14.875 10.9375 C15.11863281 12.31228516 15.11863281 12.31228516 15.3671875 13.71484375 C15.57601563 14.46894531 15.78484375 15.22304688 16 16 C16.66 16.33 17.32 16.66 18 17 C18.2475 16.2575 18.495 15.515 18.75 14.75 C20.09720995 11.78613811 21.66371802 10.22231701 24 8 C24.15227705 12.35584221 24.18079147 16.70419336 24.1875 21.0625 C24.23197266 22.29162109 24.27644531 23.52074219 24.32226562 24.78710938 C24.29234596 28.48717494 24.12514851 31.4692656 23 35 C19.70098554 38.20367305 16.10058516 40.00114845 12 42 C9.87731558 43.56727223 7.97058146 45.24245437 6 47 C-0.87932204 40.88504707 -4.37838248 33.05005236 -5.19018555 23.84301758 C-5.26608761 21.66249144 -5.27339538 19.4941196 -5.25 17.3125 C-5.25773438 16.57966797 -5.26546875 15.84683594 -5.2734375 15.09179688 C-5.25075057 8.80184512 -3.939911 4.83534531 0 0 Z " fill="#F98F57" transform="translate(9,32)"/>
<path d="M0 0 C0.94875 0.04125 1.8975 0.0825 2.875 0.125 C2.215 1.775 1.555 3.425 0.875 5.125 C1.926875 5.0425 2.97875 4.96 4.0625 4.875 C7.875 5.125 7.875 5.125 10.75 6.6875 C13.4521041 9.78697236 13.64183515 12.08347594 13.875 16.125 C11.565 15.795 9.255 15.465 6.875 15.125 C7.37 16.115 7.37 16.115 7.875 17.125 C9.16187011 20.98561033 9.01257618 24.06650283 8.875 28.125 C5.9280446 26.74711705 3.40449105 25.15022155 0.8125 23.1875 C0.14089844 22.68347656 -0.53070313 22.17945312 -1.22265625 21.66015625 C-2.98254279 20.23996034 -4.56178256 18.75639514 -6.125 17.125 C-6.60710938 17.95644531 -7.08921875 18.78789063 -7.5859375 19.64453125 C-8.53339844 21.27455078 -8.53339844 21.27455078 -9.5 22.9375 C-10.12648438 24.01644531 -10.75296875 25.09539063 -11.3984375 26.20703125 C-12.58555346 28.21331093 -13.83189373 30.18534059 -15.125 32.125 C-16.115 31.795 -17.105 31.465 -18.125 31.125 C-18.85546875 29.05859375 -18.85546875 29.05859375 -19.3125 26.5625 C-19.47105469 25.73621094 -19.62960938 24.90992187 -19.79296875 24.05859375 C-19.90253906 23.42050781 -20.01210938 22.78242187 -20.125 22.125 C-21.548125 23.3625 -21.548125 23.3625 -23 24.625 C-25.875 27.125 -25.875 27.125 -28.125 27.125 C-28.41471178 21.52390552 -28.28476306 17.97749327 -25.125 13.125 C-22.76481646 10.76481646 -21.72386578 10.16583176 -18.375 9.9375 C-17.6325 9.999375 -16.89 10.06125 -16.125 10.125 C-16.125 9.465 -16.125 8.805 -16.125 8.125 C-18.765 7.465 -21.405 6.805 -24.125 6.125 C-22.39907887 3.82377182 -21.09544702 2.29292443 -18.18359375 1.7890625 C-14.33909252 1.71826137 -12.36224437 1.96683709 -9.125 4.125 C-9.125 4.785 -9.125 5.445 -9.125 6.125 C-8.465 6.125 -7.805 6.125 -7.125 6.125 C-6.691875 5.196875 -6.691875 5.196875 -6.25 4.25 C-4.49257947 0.93042788 -3.84628281 0.15385131 0 0 Z " fill="#498D20" transform="translate(42.125,16.875)"/>
<path d="M0 0 C2.75893693 0.99799534 5.11036983 2.23258159 7.65234375 3.6875 C18.29647957 9.63829806 30.03092857 8.84902506 41.609375 6.4453125 C44.43604427 5.91877607 47.13191307 5.84496827 50 6 C47.14794803 10.0092091 44.61389203 12.0680594 40.1875 14.1875 C39.19105469 14.67605469 38.19460937 15.16460937 37.16796875 15.66796875 C26.66193883 20.08542399 14.17363267 20.91675631 3.30859375 17.05078125 C-3.27565553 14.05388944 -12.09687582 9.98749828 -15.3125 3.25 C-15.539375 2.5075 -15.76625 1.765 -16 1 C-11.31070837 -1.34464582 -5.08281719 -0.49205996 0 0 Z " fill="#026A77" transform="translate(31,77)"/>
<path d="M0 0 C1.26015092 0.9026613 2.51443575 1.81396648 3.75 2.75 C3.42 3.41 3.09 4.07 2.75 4.75 C-16.27663364 4.85543318 -35.249065 4.91036244 -54.25 3.75 C-50.96363805 0.19524188 -48.13658458 -2.09413345 -43.6875 -4 C-42.75808594 -4.40734375 -41.82867187 -4.8146875 -40.87109375 -5.234375 C-27.46472015 -10.42909502 -11.77989189 -7.7191217 0 0 Z " fill="#5DC99B" transform="translate(75.25,11.25)"/>
<path d="M0 0 C0.639375 0.66 1.27875 1.32 1.9375 2 C6.04464253 4.68221553 9.23379829 4.37381974 14 4 C14 3.01 14 2.02 14 1 C18.35647645 2.44950405 21.31757289 4.67747112 24.8125 7.625 C25.78832031 8.44226563 26.76414063 9.25953125 27.76953125 10.1015625 C28.50558594 10.72804688 29.24164063 11.35453125 30 12 C28 15 28 15 25.234375 15.73046875 C3.43444697 18.58987635 3.43444697 18.58987635 -6 15 C-6.90363281 14.65839844 -7.80726562 14.31679687 -8.73828125 13.96484375 C-9.58777344 13.62582031 -10.43726563 13.28679687 -11.3125 12.9375 C-12.17488281 12.59589844 -13.03726563 12.25429687 -13.92578125 11.90234375 C-16 11 -16 11 -17 10 C-17.1875 7.5625 -17.1875 7.5625 -17 5 C-15 3 -15 3 -11.75 2.75 C-8.11061954 2.99262536 -5.41083884 3.7872573 -2 5 C-0.68 5 0.64 5 2 5 C1.34 3.35 0.68 1.7 0 0 Z " fill="#9FA40D" transform="translate(54,68)"/>
<path d="M0 0 C0.66 0 1.32 0 2 0 C2.84266711 1.74552473 3.67380038 3.4966208 4.5 5.25 C4.9640625 6.22453125 5.428125 7.1990625 5.90625 8.203125 C7 11 7 11 7 15 C-1.50796591 17.83598864 -12.15176575 14.72327942 -20.64453125 12.765625 C-25.40118354 11.68028874 -30.19391101 10.83370931 -35 10 C-35.33 12.31 -35.66 14.62 -36 17 C-36.33 17 -36.66 17 -37 17 C-37.13277344 16.38511719 -37.26554687 15.77023438 -37.40234375 15.13671875 C-37.57894531 14.32847656 -37.75554688 13.52023438 -37.9375 12.6875 C-38.11152344 11.88699219 -38.28554688 11.08648437 -38.46484375 10.26171875 C-38.99886159 7.854599 -38.99886159 7.854599 -40 5 C-36.28400809 4.79913557 -35.22791555 4.8480563 -32 7 C-32 5.02 -32 3.04 -32 1 C-31.06615479 1.00523682 -30.13230957 1.01047363 -29.17016602 1.01586914 C-25.71687204 1.0328762 -22.26362233 1.04543302 -18.81030273 1.05493164 C-17.31355082 1.05997121 -15.81680384 1.06680287 -14.32006836 1.07543945 C-12.17300193 1.08752159 -10.02600038 1.09323191 -7.87890625 1.09765625 C-6.5854126 1.10289307 -5.29191895 1.10812988 -3.95922852 1.11352539 C-1.11347596 1.33996932 -1.11347596 1.33996932 0 0 Z " fill="#CCE07D" transform="translate(88,26)"/>
<path d="M0 0 C1.7578125 2.29492188 1.7578125 2.29492188 3.515625 4.58984375 C2.855625 5.57984375 2.195625 6.56984375 1.515625 7.58984375 C-2.97728465 8.20136584 -7.50268937 8.10463513 -12.0324707 8.09082031 C-14.27882475 8.08985153 -16.52172106 8.13137234 -18.76757812 8.17578125 C-20.20051373 8.18099123 -21.63346118 8.18367639 -23.06640625 8.18359375 C-25.01897339 8.19422852 -25.01897339 8.19422852 -27.01098633 8.20507812 C-31.32940544 7.4401652 -32.59870124 5.7787347 -35.484375 2.58984375 C-39.16879004 1.70457266 -39.16879004 1.70457266 -42.484375 1.58984375 C-42.484375 0.92984375 -42.484375 0.26984375 -42.484375 -0.41015625 C-39.41099019 -1.94684865 -36.15142308 -1.67143943 -32.7734375 -1.76171875 C-32.00889252 -1.78487152 -31.24434753 -1.80802429 -30.45663452 -1.83187866 C-28.83769363 -1.87952795 -27.21868009 -1.92476085 -25.59960938 -1.96777344 C-23.12601405 -2.03470602 -20.65292788 -2.11254645 -18.1796875 -2.19140625 C-16.60678961 -2.23633932 -15.03387325 -2.28063115 -13.4609375 -2.32421875 C-12.72227448 -2.34811676 -11.98361145 -2.37201477 -11.2225647 -2.39663696 C-2.73982164 -2.60283056 -2.73982164 -2.60283056 0 0 Z " fill="#8ED58E" transform="translate(85.484375,20.41015625)"/>
<path d="M0 0 C1.65 0.33 3.3 0.66 5 1 C5 4.63 5 8.26 5 12 C6.299375 11.01 7.59875 10.02 8.9375 9 C12.875 6 12.875 6 14 6 C14.33 9.3 14.66 12.6 15 16 C13.68 16.33 12.36 16.66 11 17 C8.86855114 18.84387308 8.86855114 18.84387308 6.875 21.0625 C5.61987331 22.40998507 4.33492972 23.73152782 3 25 C2.34 25 1.68 25 1 25 C1 24.01 1 23.02 1 22 C-0.32 22 -1.64 22 -3 22 C-3.33 22.66 -3.66 23.32 -4 24 C-4.10822792 20.93654856 -4.18741479 17.8769399 -4.25 14.8125 C-4.28351562 13.94818359 -4.31703125 13.08386719 -4.3515625 12.19335938 C-4.41837569 7.83379843 -4.41222114 5.63670591 -1.984375 1.88671875 C-1.32953125 1.26410156 -0.6746875 0.64148437 0 0 Z " fill="#F7E472" transform="translate(9,32)"/>
<path d="M0 0 C2.75893693 0.99799534 5.11036983 2.23258159 7.65234375 3.6875 C18.29647957 9.63829806 30.03092857 8.84902506 41.609375 6.4453125 C44.43604427 5.91877607 47.13191307 5.84496827 50 6 C48.91015625 7.92578125 48.91015625 7.92578125 47 10 C43.93359375 10.79296875 43.93359375 10.79296875 40.4375 11.1875 C36.06886291 11.5879082 36.06886291 11.5879082 32 13 C22.36778959 13.63796399 14.59551054 13.6884603 6 9 C-1.34160146 5.82724761 -7.98256621 3.40766612 -16 3 C-16 2.34 -16 1.68 -16 1 C-11.31070837 -1.34464582 -5.08281719 -0.49205996 0 0 Z " fill="#20AA9D" transform="translate(31,77)"/>
<path d="M0 0 C3.34708051 1.54841575 6.24667512 3.49105864 9.25 5.625 C10.14203125 6.25664063 11.0340625 6.88828125 11.953125 7.5390625 C12.96632813 8.26222656 12.96632813 8.26222656 14 9 C14.66 7.35 15.32 5.7 16 4 C17.875 4.3125 17.875 4.3125 20 5 C20.99 6.485 20.99 6.485 22 8 C24.1240298 8.44259897 24.1240298 8.44259897 26.578125 8.37109375 C27.94904297 8.39719727 27.94904297 8.39719727 29.34765625 8.42382812 C31.26691286 8.43286904 33.1861913 8.43814035 35.10546875 8.43945312 C41.07051246 8.56076187 44.10282034 9.33079182 49 13 C51.9189422 13.21477167 54.09085507 12.60189205 57 12 C57.495 15.96 57.495 15.96 58 20 C55.66666667 20 53.33333333 20 51 20 C49.46484375 18.25 49.46484375 18.25 47.9375 16 C45.7319455 13.28840919 44.7148335 12.13770164 41.2421875 11.46875 C38.45873721 11.49844014 35.76547822 11.69507744 33 12 C31.68 12 30.36 12 29 12 C27.845 12.04125 26.69 12.0825 25.5 12.125 C21.88847505 12.14521376 18.54648443 11.60470477 15 10.9375 C9.95338489 10.01644477 6.02741099 10.1462887 1 11 C0 10 0 10 -0.09765625 7.71484375 C-0.08605469 6.79832031 -0.07445312 5.88179687 -0.0625 4.9375 C-0.05347656 4.01839844 -0.04445312 3.09929688 -0.03515625 2.15234375 C-0.02355469 1.44207031 -0.01195312 0.73179688 0 0 Z " fill="#FEC260" transform="translate(37,36)"/>
<path d="M0 0 C0.94875 0.04125 1.8975 0.0825 2.875 0.125 C2.215 1.775 1.555 3.425 0.875 5.125 C1.926875 5.0425 2.97875 4.96 4.0625 4.875 C7.875 5.125 7.875 5.125 10.75 6.6875 C13.4521041 9.78697236 13.64183515 12.08347594 13.875 16.125 C12.885 15.795 11.895 15.465 10.875 15.125 C10.875 14.465 10.875 13.805 10.875 13.125 C10.215 13.125 9.555 13.125 8.875 13.125 C8.875 12.465 8.875 11.805 8.875 11.125 C3.4161217 10.9857658 3.4161217 10.9857658 -1.9375 11.8125 C-2.659375 11.915625 -3.38125 12.01875 -4.125 12.125 C-5.9375 10.6875 -5.9375 10.6875 -7.125 9.125 C-7.785 9.785 -8.445 10.445 -9.125 11.125 C-11.92544872 10.69820928 -14.53724943 9.67304597 -17.1875 8.6875 C-17.85910156 8.44128906 -18.53070313 8.19507813 -19.22265625 7.94140625 C-21.125 7.125 -21.125 7.125 -24.125 5.125 C-21.54424598 2.54424598 -19.61532019 1.88447242 -16.0625 1.8125 C-12.125 2.125 -12.125 2.125 -9.125 4.125 C-9.125 4.785 -9.125 5.445 -9.125 6.125 C-8.465 6.125 -7.805 6.125 -7.125 6.125 C-6.691875 5.196875 -6.691875 5.196875 -6.25 4.25 C-4.49257947 0.93042788 -3.84628281 0.15385131 0 0 Z " fill="#33781C" transform="translate(42.125,16.875)"/>
<path d="M0 0 C4.35647645 1.44950405 7.31757289 3.67747112 10.8125 6.625 C11.78832031 7.44226563 12.76414062 8.25953125 13.76953125 9.1015625 C14.50558594 9.72804688 15.24164063 10.35453125 16 11 C14.35535874 13.01117825 13.52669006 13.92954984 10.90283203 14.28051758 C9.71729736 14.21320435 9.71729736 14.21320435 8.5078125 14.14453125 C7.63769531 14.09876953 6.76757812 14.05300781 5.87109375 14.00585938 C4.96488281 13.94205078 4.05867188 13.87824219 3.125 13.8125 C1.77728516 13.74579102 1.77728516 13.74579102 0.40234375 13.67773438 C-4.08769656 13.40912783 -7.92034154 13.07396863 -12 11 C-11.6875 8.625 -11.6875 8.625 -11 6 C-7.79619983 3.86413322 -6.98060033 3.76867825 -3.3125 3.875 C-2.10013672 3.90207031 -2.10013672 3.90207031 -0.86328125 3.9296875 C0.05904297 3.96449219 0.05904297 3.96449219 1 4 C0.67 2.68 0.34 1.36 0 0 Z " fill="#D1CE13" transform="translate(68,69)"/>
<path d="M0 0 C0.66 0.33 1.32 0.66 2 1 C1.67 1.66 1.34 2.32 1 3 C0.34 3 -0.32 3 -1 3 C-0.67 3.99 -0.34 4.98 0 6 C-1.98 6.99 -1.98 6.99 -4 8 C-4 9.65 -4 11.3 -4 13 C-0.67458072 14.35382682 2.65979708 15.6830922 6 17 C6.99 17.391875 7.98 17.78375 9 18.1875 C13.28184609 19.34716665 17.58596101 19.66851091 22 20 C22 20.33 22 20.66 22 21 C11.28257234 21.62230225 2.44664258 20.17206261 -6.9375 14.8125 C-12.18668961 11.97058206 -18.15687371 12.17814409 -24 12 C-14.84900285 2.29439696 -14.84900285 2.29439696 -9.65625 1.7578125 C-8.1073169 1.79301553 -6.5583498 1.87658647 -5.015625 2.01953125 C-2.67863302 2.1805307 -2.67863302 2.1805307 0 0 Z " fill="#5A8614" transform="translate(42,65)"/>
<path d="M0 0 C0.66 0 1.32 0 2 0 C2.66 1.98 3.32 3.96 4 6 C2.47076904 6.02187378 2.47076904 6.02187378 0.91064453 6.04418945 C-2.86543166 6.10208466 -6.64090596 6.17931665 -10.41650391 6.26245117 C-12.05182134 6.29574214 -13.68725482 6.32376106 -15.32275391 6.34643555 C-17.67140243 6.37990628 -20.01898337 6.43221436 -22.3671875 6.48828125 C-23.46726639 6.49786613 -23.46726639 6.49786613 -24.58956909 6.50764465 C-26.87324756 6.53994543 -26.87324756 6.53994543 -30 7 C-30.99 8.485 -30.99 8.485 -32 10 C-32.99 10 -33.98 10 -35 10 C-35.33 12.31 -35.66 14.62 -36 17 C-36.33 17 -36.66 17 -37 17 C-37.13277344 16.38511719 -37.26554687 15.77023438 -37.40234375 15.13671875 C-37.57894531 14.32847656 -37.75554688 13.52023438 -37.9375 12.6875 C-38.11152344 11.88699219 -38.28554688 11.08648437 -38.46484375 10.26171875 C-38.99886159 7.854599 -38.99886159 7.854599 -40 5 C-36.28400809 4.79913557 -35.22791555 4.8480563 -32 7 C-32 5.02 -32 3.04 -32 1 C-31.06615479 1.00523682 -30.13230957 1.01047363 -29.17016602 1.01586914 C-25.71687204 1.0328762 -22.26362233 1.04543302 -18.81030273 1.05493164 C-17.31355082 1.05997121 -15.81680384 1.06680287 -14.32006836 1.07543945 C-12.17300193 1.08752159 -10.02600038 1.09323191 -7.87890625 1.09765625 C-6.5854126 1.10289307 -5.29191895 1.10812988 -3.95922852 1.11352539 C-1.11347596 1.33996932 -1.11347596 1.33996932 0 0 Z " fill="#B7DD82" transform="translate(88,26)"/>
<path d="M0 0 C0.66 0 1.32 0 2 0 C2.93620961 1.99092676 3.84871745 3.99302029 4.75 6 C6.44679726 9.38479423 6.44679726 9.38479423 9 12 C13.81087914 13.07258945 18.15098175 12.72634393 23 12 C23.33 11.34 23.66 10.68 24 10 C24.99 10.33 25.98 10.66 27 11 C27 11.66 27 12.32 27 13 C26.01 13 25.02 13 24 13 C24 13.99 24 14.98 24 16 C24.66 16.33 25.32 16.66 26 17 C25.67 17.99 25.34 18.98 25 20 C23.39884424 20.2493357 21.79379841 20.47378648 20.1875 20.6875 C19.29417969 20.81511719 18.40085937 20.94273438 17.48046875 21.07421875 C15 21 15 21 13.17578125 19.51953125 C12.78777344 19.01808594 12.39976563 18.51664063 12 18 C12.66 19.32 13.32 20.64 14 22 C13.01 22 12.02 22 11 22 C10.5875 21.030625 10.175 20.06125 9.75 19.0625 C8.37507457 15.86188547 8.37507457 15.86188547 5.890625 15.30859375 C5.26671875 15.20675781 4.6428125 15.10492188 4 15 C3.87882812 14.38511719 3.75765625 13.77023438 3.6328125 13.13671875 C3.46523438 12.32847656 3.29765625 11.52023438 3.125 10.6875 C2.96257813 9.88699219 2.80015625 9.08648437 2.6328125 8.26171875 C2.05521001 5.74698882 2.05521001 5.74698882 0 3 C0 2.01 0 1.02 0 0 Z " fill="#7A3F0E" transform="translate(43,52)"/>
<path d="M0 0 C0.495 1.485 0.495 1.485 1 3 C-2.77856409 6.77856409 -9.49714202 5.4126784 -14.65795898 5.42553711 C-16.92606424 5.43743999 -19.19145336 5.48661031 -21.45898438 5.53710938 C-22.89842421 5.54657298 -24.33788076 5.55380832 -25.77734375 5.55859375 C-27.08952881 5.57204834 -28.40171387 5.58550293 -29.75366211 5.59936523 C-33 5 -33 5 -34.95141602 2.46508789 C-35.29744873 1.65160889 -35.64348145 0.83812988 -36 0 C-31.35544096 -0.16771068 -26.71071045 -0.32825993 -22.06567383 -0.48217773 C-20.48552796 -0.53554679 -18.90544689 -0.59087216 -17.32543945 -0.64819336 C-15.05434137 -0.73024686 -12.78310314 -0.80526189 -10.51171875 -0.87890625 C-9.80536789 -0.90594131 -9.09901703 -0.93297638 -8.3712616 -0.96083069 C-5.26132061 -1.05545931 -2.98120616 -0.99373539 0 0 Z " fill="#A3D988" transform="translate(88,23)"/>
<path d="M0 0 C-3.80641241 2.53760827 -6.96860355 2.34977475 -11.38671875 2.4140625 C-12.61223198 2.44311172 -12.61223198 2.44311172 -13.86250305 2.4727478 C-16.47072934 2.53250352 -19.07899986 2.57891258 -21.6875 2.625 C-23.4563994 2.6631835 -25.22528028 2.70223546 -26.99414062 2.7421875 C-31.32927659 2.83820168 -35.6644996 2.92224735 -40 3 C-28.87873126 -5.47779445 -12.63037374 -5.21352036 0 0 Z " fill="#2CB39C" transform="translate(68,7)"/>
<path d="M0 0 C0.91007812 0.10183594 1.82015625 0.20367188 2.7578125 0.30859375 C3.45648438 0.39238281 4.15515625 0.47617187 4.875 0.5625 C4.545 1.2225 4.215 1.8825 3.875 2.5625 C4.184375 3.26375 4.49375 3.965 4.8125 4.6875 C6.21930688 8.49415392 6.01212735 11.51724319 5.875 15.5625 C2.03702456 13.99888038 -0.2917627 11.53739917 -3.125 8.5625 C-3.888125 7.881875 -4.65125 7.20125 -5.4375 6.5 C-7.125 4.5625 -7.125 4.5625 -7.125 0.5625 C-4.50184968 -0.74907516 -2.89466564 -0.33399988 0 0 Z " fill="#5E9C23" transform="translate(45.125,29.4375)"/>
<path d="M0 0 C0.93457031 0.144375 1.86914062 0.28875 2.83203125 0.4375 C10.69901597 1.57627595 18.42102807 2.19358742 26.375 2.1875 C27.20104736 2.18814453 28.02709473 2.18878906 28.87817383 2.18945312 C33.07330926 2.25237013 33.07330926 2.25237013 37 1 C37.66 2.98 38.32 4.96 39 7 C29.54238 10.15254 17.38573413 6.27673749 8 4 C7.1234375 3.78859375 6.246875 3.5771875 5.34375 3.359375 C3.55917789 2.91951568 1.77883929 2.46249822 0 2 C0 1.34 0 0.68 0 0 Z " fill="#E3E87C" transform="translate(56,34)"/>
<path d="M0 0 C0.33 0 0.66 0 1 0 C1.33 3.63 1.66 7.26 2 11 C3.98 10.67 5.96 10.34 8 10 C8.33 10.66 8.66 11.32 9 12 C8.34 12 7.68 12 7 12 C7.53625 12.86625 8.0725 13.7325 8.625 14.625 C10 18 10 18 9.1875 21.375 C8.795625 22.24125 8.40375 23.1075 8 24 C7.01 24 6.02 24 5 24 C5 23.34 5 22.68 5 22 C4.38125 21.9175 3.7625 21.835 3.125 21.75 C1 21 1 21 -0.12109375 19.359375 C-1.25863763 16.30570166 -1.2285329 13.75279004 -1.1875 10.5 C-1.18105469 9.3759375 -1.17460938 8.251875 -1.16796875 7.09375 C-1.0295553 4.54436746 -0.74334614 2.4262818 0 0 Z " fill="#FB8A3F" transform="translate(36,40)"/>
<path d="M0 0 C0 0.66 0 1.32 0 2 C0.94875 2.144375 1.8975 2.28875 2.875 2.4375 C6 3 6 3 8 4 C8 4.66 8 5.32 8 6 C6.3603125 6.37125 6.3603125 6.37125 4.6875 6.75 C0.85392279 8.0495177 -0.05197711 8.61659182 -2 12 C-2.99 13.485 -2.99 13.485 -4 15 C-4.33 14.01 -4.66 13.02 -5 12 C-7.01508358 11.26676204 -7.01508358 11.26676204 -9 11 C-9.66 12.32 -10.32 13.64 -11 15 C-11.33 14.34 -11.66 13.68 -12 13 C-10.92578125 10.46875 -10.92578125 10.46875 -9.3125 7.5 C-8.79300781 6.5203125 -8.27351562 5.540625 -7.73828125 4.53125 C-5.5973553 1.41367693 -3.82991137 0 0 0 Z " fill="#9DCD7E" transform="translate(18,21)"/>
<path d="M0 0 C1.98 0 3.96 0 6 0 C5.34 1.65 4.68 3.3 4 5 C5.051875 4.9175 6.10375 4.835 7.1875 4.75 C11 5 11 5 13.875 6.5625 C16.5771041 9.66197236 16.76683515 11.95847594 17 16 C16.01 15.67 15.02 15.34 14 15 C14 14.34 14 13.68 14 13 C13.34 13 12.68 13 12 13 C12 12.34 12 11.68 12 11 C9.69 11 7.38 11 5 11 C4.896875 10.360625 4.79375 9.72125 4.6875 9.0625 C4.460625 8.381875 4.23375 7.70125 4 7 C3.01 6.67 2.02 6.34 1 6 C0.34 5.34 -0.32 4.68 -1 4 C-0.625 1.875 -0.625 1.875 0 0 Z " fill="#79B427" transform="translate(39,17)"/>
<path d="M0 0 C0.33 0 0.66 0 1 0 C1.08172936 2.5215021 1.14083373 5.04029917 1.1875 7.5625 C1.21263672 8.26697266 1.23777344 8.97144531 1.26367188 9.69726562 C1.33504547 14.85995575 0.58585378 18.48492497 -2 23 C-4.1875 23.9375 -4.1875 23.9375 -6 24 C-6.31453125 23.19175781 -6.6290625 22.38351563 -6.953125 21.55078125 C-7.38109375 20.48214844 -7.8090625 19.41351563 -8.25 18.3125 C-8.66765625 17.25675781 -9.0853125 16.20101562 -9.515625 15.11328125 C-11.0091651 11.98077741 -12.73223585 9.61180529 -15 7 C-14.67 6.34 -14.34 5.68 -14 5 C-11.36 7.97 -8.72 10.94 -6 14 C-4.35 13.34 -2.7 12.68 -1 12 C-0.67 8.04 -0.34 4.08 0 0 Z " fill="#F1A660" transform="translate(95,42)"/>
<path d="M0 0 C-16.17 0.33 -32.34 0.66 -49 1 C-48.67 0.34 -48.34 -0.32 -48 -1 C-41.41449836 -2.53324432 -34.56368893 -2.36198895 -27.83276367 -2.55761719 C-25.57244743 -2.62470475 -23.31267428 -2.70260065 -21.05273438 -2.78125 C-19.59897852 -2.82617879 -18.14520281 -2.87047062 -16.69140625 -2.9140625 C-15.38373291 -2.9548291 -14.07605957 -2.9955957 -12.72875977 -3.03759766 C-2.93888485 -2.93888485 -2.93888485 -2.93888485 0 0 Z " fill="#44C09F" transform="translate(74,11)"/>
<path d="M0 0 C0.66 0 1.32 0 2 0 C2.33 2.31 2.66 4.62 3 7 C3.99 7.33 4.98 7.66 6 8 C4.54712339 9.33927721 3.08752741 10.67126847 1.625 12 C0.40683594 13.11375 0.40683594 13.11375 -0.8359375 14.25 C-3 16 -3 16 -5 16 C-5.29209024 10.35292212 -5.0637112 6.94907193 -2 2 C-1.34 1.34 -0.68 0.68 0 0 Z " fill="#297021" transform="translate(19,28)"/>
<path d="M0 0 C-1.93625098 0.98163422 -3.87404539 1.96022454 -5.8125 2.9375 C-7.43091797 3.75541016 -7.43091797 3.75541016 -9.08203125 4.58984375 C-12.65526321 6.31666669 -15.30547256 7.1254931 -19.23046875 7.09765625 C-20.03291016 7.09443359 -20.83535156 7.09121094 -21.66210938 7.08789062 C-22.49548828 7.07951172 -23.32886719 7.07113281 -24.1875 7.0625 C-25.4549707 7.05573242 -25.4549707 7.05573242 -26.74804688 7.04882812 C-28.83206155 7.03705403 -30.91603977 7.0191189 -33 7 C-33 6.67 -33 6.34 -33 6 C-25.08 5.505 -25.08 5.505 -17 5 C-17 4.34 -17 3.68 -17 3 C-19.64 3 -22.28 3 -25 3 C-25 2.67 -25 2.34 -25 2 C-23.98292969 1.92652344 -23.98292969 1.92652344 -22.9453125 1.8515625 C-17.22795816 1.39227365 -11.77062257 0.64664068 -6.19140625 -0.6953125 C-3.82346266 -1.0245453 -2.25759909 -0.73024845 0 0 Z " fill="#099292" transform="translate(77,88)"/>
<path d="M0 0 C7.25070119 -0.46445773 10.92301431 -0.18636792 17 4 C19.839349 4.05709843 22.19263602 3.58083393 25 3 C25.33 5.64 25.66 8.28 26 11 C23.66666667 11 21.33333333 11 19 11 C17.4296875 9.28515625 17.4296875 9.28515625 15.875 7.0625 C13.76115523 4.4534378 12.67415366 3.1768769 9.39453125 2.31640625 C6.71572271 2.09362972 6.71572271 2.09362972 4.13671875 2.1328125 C2 2 2 2 0 0 Z " fill="#FECB6D" transform="translate(69,45)"/>
<path d="M0 0 C8.13695602 0.27123187 13.93179365 3.08916501 21 7 C21 7.66 21 8.32 21 9 C17.08997235 10.21645305 15.04831182 10.42136595 11.19140625 8.87109375 C6.56448685 6.41937948 2.91295225 4.45681694 0 0 Z " fill="#047885" transform="translate(20,84)"/>
<path d="M0 0 C0.66 0.33 1.32 0.66 2 1 C2 1.99 2 2.98 2 4 C1.42507812 4.08121094 0.85015625 4.16242187 0.2578125 4.24609375 C-2.69104572 5.2307471 -4.02180123 6.79536369 -6.125 9.0625 C-7.38012669 10.40998507 -8.66507028 11.73152782 -10 13 C-10.66 13 -11.32 13 -12 13 C-12 12.01 -12 11.02 -12 10 C-13.32 10 -14.64 10 -16 10 C-16.33 10.66 -16.66 11.32 -17 12 C-17 9.36 -17 6.72 -17 4 C-16.35933594 4.13019531 -15.71867188 4.26039062 -15.05859375 4.39453125 C-9.80216185 5.30042659 -9.80216185 5.30042659 -4.77734375 3.953125 C-2.65000002 2.4450205 -2.65000002 2.4450205 0 0 Z " fill="#FCCA6C" transform="translate(22,44)"/>
<path d="M0 0 C-1.08984375 1.92578125 -1.08984375 1.92578125 -3 4 C-6.06640625 4.79296875 -6.06640625 4.79296875 -9.5625 5.1875 C-13.93113709 5.5879082 -13.93113709 5.5879082 -18 7 C-19.87379605 7.07033769 -21.75001102 7.0843022 -23.625 7.0625 C-24.62789062 7.05347656 -25.63078125 7.04445313 -26.6640625 7.03515625 C-27.43492188 7.02355469 -28.20578125 7.01195313 -29 7 C-29 6.67 -29 6.34 -29 6 C-27.35 6 -25.7 6 -24 6 C-24 5.34 -24 4.68 -24 4 C-15.96249434 1.68903544 -8.42972544 -0.20560306 0 0 Z " fill="#31C8B5" transform="translate(81,83)"/>
<path d="M0 0 C0.598125 0.33 1.19625 0.66 1.8125 1 C4.05386471 2.20787988 4.05386471 2.20787988 7 2 C7.66 1.34 8.32 0.68 9 0 C9.66 0 10.32 0 11 0 C11.66 0.99 12.32 1.98 13 3 C13.680625 2.814375 14.36125 2.62875 15.0625 2.4375 C18.57232191 1.91476057 21.52188063 2.38621423 25 3 C25 3.66 25 4.32 25 5 C25.66 5.33 26.32 5.66 27 6 C26.08476563 5.9278125 25.16953125 5.855625 24.2265625 5.78125 C23.03804687 5.6884375 21.84953125 5.595625 20.625 5.5 C19.44164063 5.4071875 18.25828125 5.314375 17.0390625 5.21875 C15.36213157 5.09804546 13.68126944 5 12 5 C13.3697164 8.99500618 15.25722422 11.80009492 18 15 C13.71095765 13.4114658 11.67654474 10.56872632 9 7 C9 6.34 9 5.68 9 5 C7.88625 4.9175 6.7725 4.835 5.625 4.75 C2 4 2 4 0.5625 1.9375 C0.376875 1.298125 0.19125 0.65875 0 0 Z " fill="#317717" transform="translate(26,25)"/>
<path d="M0 0 C0.33 0.99 0.66 1.98 1 3 C-0.01320313 2.97679687 -1.02640625 2.95359375 -2.0703125 2.9296875 C-3.42186758 2.9109159 -4.77343069 2.8927172 -6.125 2.875 C-7.12273438 2.84986328 -7.12273438 2.84986328 -8.140625 2.82421875 C-12.49516056 2.78152722 -15.95600114 3.40003783 -20 5 C-21 4 -21 4 -21.0625 1.4375 C-21.041875 0.633125 -21.02125 -0.17125 -21 -1 C-13.5810058 -2.23649903 -7.34514411 -1.50382815 0 0 Z " fill="#FEAF54" transform="translate(58,47)"/>
<path d="M0 0 C0.33 0 0.66 0 1 0 C1 2.31 1 4.62 1 7 C2.65 7.33 4.3 7.66 6 8 C6.66 9.98 7.32 11.96 8 14 C6.01739401 13.57835981 4.03892755 13.13721222 2.0625 12.6875 C0.96035156 12.44386719 -0.14179687 12.20023438 -1.27734375 11.94921875 C-2.17582031 11.63597656 -3.07429688 11.32273437 -4 11 C-4.33 10.01 -4.66 9.02 -5 8 C-4.34 8 -3.68 8 -3 8 C-1.58622659 5.36095629 -0.62759865 2.92879371 0 0 Z " fill="#5A380D" transform="translate(46,60)"/>
<path d="M0 0 C1.65 0.33 3.3 0.66 5 1 C5 3.97 5 6.94 5 10 C-1.75 10.125 -1.75 10.125 -4 9 C-3.46930939 5.17902761 -2.50298434 2.93828597 0 0 Z " fill="#DADE73" transform="translate(9,32)"/>
<path d="M0 0 C1.6875 1.4375 1.6875 1.4375 3 4 C2.53125 5.8125 2.53125 5.8125 1.6875 7.9375 C-0.99575505 14.95345693 -1.25360388 22.63806232 1.375 29.6875 C2.93794281 32.05261016 2.93794281 32.05261016 5 34 C3.1875 33.875 3.1875 33.875 1 33 C-2.59959406 27.66147161 -2.42047878 22.69366307 -2.3125 16.5 C-2.31733398 15.11361328 -2.31733398 15.11361328 -2.32226562 13.69921875 C-2.28328573 8.74522906 -1.94138228 4.64075445 0 0 Z " fill="#88461D" transform="translate(35,32)"/>
<path d="M0 0 C1.2375 0.144375 2.475 0.28875 3.75 0.4375 C12.47120876 1.32226031 21.24574456 1.6037011 30 2 C30 2.33 30 2.66 30 3 C18.52220789 4.93310183 10.75440055 5.84705377 0 1 C0 0.67 0 0.34 0 0 Z " fill="#A5B610" transform="translate(51,80)"/>
<path d="M0 0 C1.12758089 3.38274266 0.81750262 4.76778223 0.0625 8.1875 C-0.13214844 9.08855469 -0.32679687 9.98960938 -0.52734375 10.91796875 C-0.68332031 11.60503906 -0.83929688 12.29210938 -1 13 C-2.98 13.66 -4.96 14.32 -7 15 C-8.0625 13.125 -8.0625 13.125 -9 11 C-8.67 10.34 -8.34 9.68 -8 9 C-7.01 9 -6.02 9 -5 9 C-4.5978125 7.88625 -4.5978125 7.88625 -4.1875 6.75 C-3.05770579 4.13363446 -1.79106798 2.19812889 0 0 Z " fill="#FDB25E" transform="translate(32,40)"/>
<path d="M0 0 C3.26023324 0.22484367 4.93132641 0.5260489 7.625 2.25 C4.985 2.25 2.345 2.25 -0.375 2.25 C-0.705 3.57 -1.035 4.89 -1.375 6.25 C-0.76011719 6.50394531 -0.14523438 6.75789063 0.48828125 7.01953125 C1.29652344 7.36371094 2.10476562 7.70789063 2.9375 8.0625 C3.73800781 8.39894531 4.53851563 8.73539063 5.36328125 9.08203125 C7.59015745 10.23200704 8.97487767 11.38626961 10.625 13.25 C6.99884158 12.6239007 3.78107632 11.63690533 0.375 10.25 C-0.49640625 9.899375 -1.3678125 9.54875 -2.265625 9.1875 C-4.375 8.25 -4.375 8.25 -5.375 7.25 C-5.5625 4.8125 -5.5625 4.8125 -5.375 2.25 C-3.375 0.25 -3.375 0.25 0 0 Z " fill="#75940C" transform="translate(42.375,70.75)"/>
<path d="M0 0 C0.99 0.66 1.98 1.32 3 2 C3 2.66 3 3.32 3 4 C3.66 4.33 4.32 4.66 5 5 C-0.83069208 6.49504925 -6.6160748 5.6919626 -12 3 C-8.22438081 -0.77561919 -5.06310909 -0.40183405 0 0 Z " fill="#64A32E" transform="translate(30,19)"/>
<path d="M0 0 C0 0.99 0 1.98 0 3 C-2.45250093 4.22625047 -3.84310435 4.03425355 -6.5703125 3.87890625 C-7.91416016 3.80639648 -7.91416016 3.80639648 -9.28515625 3.73242188 C-10.22230469 3.67634766 -11.15945312 3.62027344 -12.125 3.5625 C-13.54232422 3.48418945 -13.54232422 3.48418945 -14.98828125 3.40429688 C-17.3258419 3.27443239 -19.66299545 3.1394613 -22 3 C-21.67 2.34 -21.34 1.68 -21 1 C-18.78515625 0.55078125 -18.78515625 0.55078125 -16.0625 0.3125 C-15.16660156 0.22613281 -14.27070312 0.13976562 -13.34765625 0.05078125 C-11 0 -11 0 -9 1 C-8.401875 0.67 -7.80375 0.34 -7.1875 0 C-4.40357182 -1.27265288 -2.89081739 -0.80300483 0 0 Z " fill="#B7C618" transform="translate(83,79)"/>
<path d="M0 0 C2.97 0.33 5.94 0.66 9 1 C8.67 1.66 8.34 2.32 8 3 C8.60760482 5.3494053 9.27129528 7.68529088 10 10 C9.34 9.67 8.68 9.34 8 9 C7.67 9.66 7.34 10.32 7 11 C6.34 11 5.68 11 5 11 C4.71125 10.195625 4.4225 9.39125 4.125 8.5625 C3.26737432 5.8673532 3.26737432 5.8673532 1 5 C1.33 4.34 1.66 3.68 2 3 C1.34 2.01 0.68 1.02 0 0 Z " fill="#74AF28" transform="translate(41,29)"/>
<path d="M0 0 C1.12329712 0.07069702 1.12329712 0.07069702 2.26928711 0.14282227 C3.07817383 0.19116211 3.88706055 0.23950195 4.72045898 0.28930664 C5.99566406 0.37341797 5.99566406 0.37341797 7.29663086 0.45922852 C8.57763672 0.53753906 8.57763672 0.53753906 9.88452148 0.61743164 C12.00135081 0.74751612 14.1177833 0.88402822 16.23413086 1.02172852 C15.57413086 2.67172852 14.91413086 4.32172852 14.23413086 6.02172852 C13.57413086 6.02172852 12.91413086 6.02172852 12.23413086 6.02172852 C11.86288086 5.52672852 11.49163086 5.03172852 11.10913086 4.52172852 C8.56025276 2.48262604 6.33063657 2.67149108 3.15600586 2.78735352 C0.83508285 3.07039291 -0.757904 3.8446455 -2.76586914 5.02172852 C-4.42327629 5.39841196 -6.08932185 5.74230397 -7.76586914 6.02172852 C-1.76586914 0.02172852 -1.76586914 0.02172852 0 0 Z " fill="#85CE8A" transform="translate(20.765869140625,16.978271484375)"/>
<path d="M0 0 C0.99 0.33 1.98 0.66 3 1 C4.25 8.625 4.25 8.625 2 12 C1.01 11.67 0.02 11.34 -1 11 C-2.23076923 4.6 -2.23076923 4.6 -1.0625 1.5625 C-0.711875 1.046875 -0.36125 0.53125 0 0 Z " fill="#33751C" transform="translate(25,37)"/>
<path d="M0 0 C0.66 0.33 1.32 0.66 2 1 C2 1.66 2 2.32 2 3 C2.15594965 4.54278761 2.32392903 6.08437905 2.5 7.625 C2.5928125 8.44226562 2.685625 9.25953125 2.78125 10.1015625 C2.8534375 10.72804688 2.925625 11.35453125 3 12 C2.01 12 1.02 12 0 12 C-0.309375 11.360625 -0.61875 10.72125 -0.9375 10.0625 C-1.8345163 8.06389179 -1.8345163 8.06389179 -3 7 C-3.66 7.99 -4.32 8.98 -5 10 C-4.50769231 3.47692308 -4.50769231 3.47692308 -1.9375 1.0625 C-0.9784375 0.5365625 -0.9784375 0.5365625 0 0 Z " fill="#438620" transform="translate(28,31)"/>
<path d="M0 0 C3.5786304 1.65167557 6.74820188 3.78286492 10 6 C6.5980513 8.09350689 3.94727588 8.17942163 0 8 C0 5.36 0 2.72 0 0 Z " fill="#F0CF6B" transform="translate(37,36)"/>
<path d="M0 0 C0.99 0 1.98 0 3 0 C4.65 3.3 6.3 6.6 8 10 C6.35 10 4.7 10 3 10 C0.27491491 6.71110421 -0.36146791 4.21712557 0 0 Z " fill="#D8502C" transform="translate(53,52)"/>
<path d="M0 0 C0.33 0 0.66 0 1 0 C1.04898438 0.81984375 1.09796875 1.6396875 1.1484375 2.484375 C1.22320312 3.56203125 1.29796875 4.6396875 1.375 5.75 C1.44460937 6.81734375 1.51421875 7.8846875 1.5859375 8.984375 C1.97814774 11.84084954 2.37629997 13.63624622 4 16 C4.99 16.33 5.98 16.66 7 17 C7 17.66 7 18.32 7 19 C10.27773504 18.24849977 10.27773504 18.24849977 12 15 C11.67 16.65 11.34 18.3 11 20 C8.04544778 20.90277984 6.61612422 21.31686389 3.8125 19.875 C0.83146472 16.7911704 0.05413806 13.92359532 -0.1953125 9.66796875 C-0.17210937 8.51941406 -0.14890625 7.37085938 -0.125 6.1875 C-0.10695312 5.02605469 -0.08890625 3.86460938 -0.0703125 2.66796875 C-0.04710937 1.78753906 -0.02390625 0.90710937 0 0 Z " fill="#AB6120" transform="translate(34,45)"/>
<path d="M0 0 C0.66 0 1.32 0 2 0 C3.54296875 2.01171875 3.54296875 2.01171875 5.1875 4.6875 C5.73792969 5.55761719 6.28835937 6.42773438 6.85546875 7.32421875 C8.17769829 10.41543798 7.98457919 11.84137891 7 15 C6.01 15 5.02 15 4 15 C3.87882812 14.38511719 3.75765625 13.77023438 3.6328125 13.13671875 C3.46523438 12.32847656 3.29765625 11.52023438 3.125 10.6875 C2.96257813 9.88699219 2.80015625 9.08648437 2.6328125 8.26171875 C2.05521001 5.74698882 2.05521001 5.74698882 0 3 C0 2.01 0 1.02 0 0 Z " fill="#8E631A" transform="translate(43,52)"/>
<path d="M0 0 C0.33 0 0.66 0 1 0 C0.96519531 0.86882813 0.93039063 1.73765625 0.89453125 2.6328125 C0.6468434 11.22105565 0.6468434 11.22105565 4 19 C4 19.99 4 20.98 4 22 C1 21 1 21 -0.17578125 19.34375 C-1.24512209 16.30297037 -1.22810015 13.71848501 -1.1875 10.5 C-1.18105469 9.3759375 -1.17460938 8.251875 -1.16796875 7.09375 C-1.0295553 4.54436746 -0.74334614 2.4262818 0 0 Z " fill="#D77C2A" transform="translate(36,40)"/>
<path d="M0 0 C5.75 0.75 5.75 0.75 8 3 C10.55867474 3.4657363 13.04687908 3.83484248 15.625 4.125 C16.33140625 4.21136719 17.0378125 4.29773438 17.765625 4.38671875 C19.50950141 4.59881183 21.2546484 4.80040991 23 5 C23 5.33 23 5.66 23 6 C14.74447081 6.34937193 7.7629761 5.94397288 0 3 C0 2.01 0 1.02 0 0 Z " fill="#6A9221" transform="translate(41,80)"/>
<path d="M0 0 C4.51720311 -0.36625971 4.51720311 -0.36625971 6.8125 1.375 C8 3 8 3 8 5 C7.01 5 6.02 5 5 5 C4.67 7.31 4.34 9.62 4 12 C3.67 12 3.34 12 3 12 C2.86722656 11.38511719 2.73445313 10.77023438 2.59765625 10.13671875 C2.42105469 9.32847656 2.24445312 8.52023438 2.0625 7.6875 C1.88847656 6.88699219 1.71445312 6.08648437 1.53515625 5.26171875 C1.00113841 2.854599 1.00113841 2.854599 0 0 Z " fill="#CDDC79" transform="translate(48,31)"/>
<path d="M0 0 C-1.12451727 2.9719385 -2.22293791 5.33440687 -4 8 C-4.33 7.01 -4.66 6.02 -5 5 C-5.99 4.67 -6.98 4.34 -8 4 C-7.625 2.0625 -7.625 2.0625 -7 0 C-4.3333581 -1.33332095 -2.83319697 -0.67102033 0 0 Z " fill="#B5DA80" transform="translate(18,28)"/>
<path d="M0 0 C3.63 0.33 7.26 0.66 11 1 C11 1.66 11 2.32 11 3 C7.98509443 4.00496852 5.95818308 4.10335303 2.8125 4.0625 C1.46091797 4.04896484 1.46091797 4.04896484 0.08203125 4.03515625 C-0.60503906 4.02355469 -1.29210938 4.01195313 -2 4 C-1.34 2.68 -0.68 1.36 0 0 Z " fill="#017680" transform="translate(49,90)"/>
<path d="M0 0 C3.8718417 1.25573244 6.02838671 2.36808079 8 6 C8.1875 8.75 8.1875 8.75 8 11 C7.01 10.67 6.02 10.34 5 10 C5 9.34 5 8.68 5 8 C4.34 8 3.68 8 3 8 C2.4375 6.0625 2.4375 6.0625 2 4 C2.33 3.67 2.66 3.34 3 3 C2.01 2.01 1.02 1.02 0 0 Z " fill="#82B829" transform="translate(48,22)"/>
<path d="M0 0 C0.598125 0.33 1.19625 0.66 1.8125 1 C4.05386471 2.20787988 4.05386471 2.20787988 7 2 C7.66 1.34 8.32 0.68 9 0 C9.66 0 10.32 0 11 0 C11.6875 1.8125 11.6875 1.8125 12 4 C10.5625 5.75 10.5625 5.75 9 7 C9 6.34 9 5.68 9 5 C7.88625 4.9175 6.7725 4.835 5.625 4.75 C2 4 2 4 0.5625 1.9375 C0.376875 1.298125 0.19125 0.65875 0 0 Z " fill="#1D5F19" transform="translate(26,25)"/>
<path d="M0 0 C0.66 0 1.32 0 2 0 C2.81567174 1.43570266 3.62742093 2.87363434 4.4375 4.3125 C4.88996094 5.11300781 5.34242187 5.91351563 5.80859375 6.73828125 C7 9 7 9 8 12 C6.25 11.9375 6.25 11.9375 4 11 C1.13940656 7.32761653 0 4.70446134 0 0 Z " fill="#F17A41" transform="translate(47,53)"/>
<path d="M0 0 C0.66 0 1.32 0 2 0 C2 0.66 2 1.32 2 2 C6.455 1.505 6.455 1.505 11 1 C11.66 2.65 12.32 4.3 13 6 C11.01739401 5.57835981 9.03892755 5.13721222 7.0625 4.6875 C5.96035156 4.44386719 4.85820313 4.20023437 3.72265625 3.94921875 C2.82417969 3.63597656 1.92570312 3.32273437 1 3 C0.67 2.01 0.34 1.02 0 0 Z " fill="#3B5A0B" transform="translate(41,68)"/>
<path d="M0 0 C3 1 3 1 4.1328125 2.77734375 C4.46023437 3.49019531 4.78765625 4.20304687 5.125 4.9375 C5.45757812 5.64777344 5.79015625 6.35804687 6.1328125 7.08984375 C6.41898438 7.72019531 6.70515625 8.35054687 7 9 C7.33 9.66 7.66 10.32 8 11 C6.25 10.875 6.25 10.875 4 10 C1.06644827 6.33306034 0 4.76869466 0 0 Z " fill="#F9CBA1" transform="translate(50,53)"/>
<path d="M0 0 C-1.125 2 -1.125 2 -3 4 C-6.5572204 4.52979878 -8.31593299 4.43204232 -11.375 2.5 C-11.91125 2.005 -12.4475 1.51 -13 1 C-8.61414671 0.29826347 -4.44209357 -0.10834375 0 0 Z " fill="#5CD1AC" transform="translate(81,83)"/>
<path d="M0 0 C0.66 0.33 1.32 0.66 2 1 C0.37660195 2.70884005 -1.29319053 4.37446717 -3 6 C-3.66 6 -4.32 6 -5 6 C-5 6.66 -5 7.32 -5 8 C-4.01 8.33 -3.02 8.66 -2 9 C-4.64 9 -7.28 9 -10 9 C-6.83047153 5.73991357 -3.60062011 2.77762123 0 0 Z " fill="#58913F" transform="translate(28,68)"/>
<path d="M0 0 C1 3 1 3 0 6 C-1.62890625 7.60546875 -1.62890625 7.60546875 -3.5625 9.1875 C-4.20316406 9.71730469 -4.84382813 10.24710938 -5.50390625 10.79296875 C-5.99761719 11.19128906 -6.49132812 11.58960938 -7 12 C-7.66 11.34 -8.32 10.68 -9 10 C-8.38125 9.938125 -7.7625 9.87625 -7.125 9.8125 C-4.76212503 9.19306477 -4.76212503 9.19306477 -3.9375 6.6875 C-3.628125 5.800625 -3.31875 4.91375 -3 4 C-2.04175747 2.63634717 -1.05278825 1.29205831 0 0 Z " fill="#EBC167" transform="translate(32,40)"/>
<path d="M0 0 C0.99 0.495 0.99 0.495 2 1 C2 1.66 2 2.32 2 3 C2.66 3 3.32 3 4 3 C4 3.66 4 4.32 4 5 C5.65 5 7.3 5 9 5 C9 6.65 9 8.3 9 10 C7.68 9.67 6.36 9.34 5 9 C5 8.01 5 7.02 5 6 C4.01 5.67 3.02 5.34 2 5 C1.34 4.34 0.68 3.68 0 3 C0 2.01 0 1.02 0 0 Z " fill="#5A9C25" transform="translate(38,18)"/>
<path d="M0 0 C1.32 0 2.64 0 4 0 C4 0.66 4 1.32 4 2 C7.3 2.99 10.6 3.98 14 5 C14 5.33 14 5.66 14 6 C9.45947656 6.46331872 6.7479274 6.17990558 3.0625 3.5625 C2.051875 2.716875 1.04125 1.87125 0 1 C0 0.67 0 0.34 0 0 Z " fill="#90A40A" transform="translate(47,79)"/>
<path d="M0 0 C-0.33 0.99 -0.66 1.98 -1 3 C-4.375 3.1875 -4.375 3.1875 -8 3 C-8.66 2.01 -9.32 1.02 -10 0 C-6.42355152 -1.2380014 -3.66305234 -0.74926071 0 0 Z " fill="#F48154" transform="translate(67,62)"/>
<path d="M0 0 C1.65 0.33 3.3 0.66 5 1 C4.67 2.32 4.34 3.64 4 5 C2.33333333 5 0.66666667 5 -1 5 C-0.67 3.35 -0.34 1.7 0 0 Z " fill="#D1E57E" transform="translate(9,32)"/>
<path d="M0 0 C0.66 0 1.32 0 2 0 C2.33 1.98 2.66 3.96 3 6 C2.34 5.67 1.68 5.34 1 5 C-0.32 5.99 -1.64 6.98 -3 8 C-3.33 7.01 -3.66 6.02 -4 5 C-2.1875 2.3125 -2.1875 2.3125 0 0 Z " fill="#3C8129" transform="translate(19,28)"/>
<path d="M0 0 C4.6875 3.61328125 4.6875 3.61328125 6 5 C6 5.99 6 6.98 6 8 C5.01 8 4.02 8 3 8 C2.67 6.68 2.34 5.36 2 4 C1.01 4.33 0.02 4.66 -1 5 C-1.33 4.01 -1.66 3.02 -2 2 C-1.34 1.34 -0.68 0.68 0 0 Z " fill="#448821" transform="translate(37,19)"/>
<path d="M0 0 C2.475 0.99 2.475 0.99 5 2 C2.33440687 3.77706209 -0.0280615 4.87548273 -3 6 C-3 3 -3 3 -1.5 1.3125 C-0.7575 0.6628125 -0.7575 0.6628125 0 0 Z " fill="#C7CD1B" transform="translate(76,75)"/>
<path d="M0 0 C3.3 0.99 6.6 1.98 10 3 C10 3.33 10 3.66 10 4 C7.36 4.33 4.72 4.66 2 5 C1.34 3.35 0.68 1.7 0 0 Z " fill="#57650A" transform="translate(56,68)"/>
<path d="M0 0 C0.99 0.33 1.98 0.66 3 1 C3 1.66 3 2.32 3 3 C2.01 3 1.02 3 0 3 C0 3.99 0 4.98 0 6 C0.66 6.33 1.32 6.66 2 7 C1.01 7 0.02 7 -1 7 C-1 6.01 -1 5.02 -1 4 C-3.31 4 -5.62 4 -8 4 C-8 3.67 -8 3.34 -8 3 C-6.865625 2.87625 -5.73125 2.7525 -4.5625 2.625 C-3.386875 2.41875 -2.21125 2.2125 -1 2 C-0.67 1.34 -0.34 0.68 0 0 Z " fill="#C55A1F" transform="translate(67,62)"/>
<path d="M0 0 C0.33 0 0.66 0 1 0 C2.19287411 3.87684087 3 6.91621923 3 11 C2.01 10.67 1.02 10.34 0 10 C-1.125 3.375 -1.125 3.375 0 0 Z " fill="#266C1E" transform="translate(24,38)"/>
<path d="M0 0 C0.99 1.32 1.98 2.64 3 4 C2.67 4.66 2.34 5.32 2 6 C1.34 6 0.68 6 0 6 C-0.33 7.98 -0.66 9.96 -1 12 C-1.33 12 -1.66 12 -2 12 C-1.85831863 10.56208484 -1.71148957 9.1246763 -1.5625 7.6875 C-1.48128906 6.88699219 -1.40007813 6.08648437 -1.31640625 5.26171875 C-1 3 -1 3 0 0 Z " fill="#502712" transform="translate(35,32)"/>
<path d="M0 0 C0.66 0.33 1.32 0.66 2 1 C1.67 1.66 1.34 2.32 1 3 C0.34 3 -0.32 3 -1 3 C-1 3.66 -1 4.32 -1 5 C-3.97 4.67 -6.94 4.34 -10 4 C-9.67 3.34 -9.34 2.68 -9 2 C-7.6078125 2.061875 -7.6078125 2.061875 -6.1875 2.125 C-2.84190281 2.27136339 -2.84190281 2.27136339 0 0 Z " fill="#507813" transform="translate(42,65)"/>
<path d="M0 0 C1.65 0 3.3 0 5 0 C4.67 0.66 4.34 1.32 4 2 C4.60760482 4.3494053 5.27129528 6.68529088 6 9 C2.91910327 6.22719294 1.31224548 3.93673644 0 0 Z " fill="#8EBF33" transform="translate(45,30)"/>
<path d="M0 0 C1.98 0 3.96 0 6 0 C5.67 1.98 5.34 3.96 5 6 C4.34 6 3.68 6 3 6 C3 5.34 3 4.68 3 4 C2.34 4 1.68 4 1 4 C0.67 2.68 0.34 1.36 0 0 Z " fill="#71AF2E" transform="translate(39,17)"/>
<path d="M0 0 C0.33 0 0.66 0 1 0 C1.125 3.375 1.125 3.375 1 7 C0.34 7.66 -0.32 8.32 -1 9 C-2.10107995 5.69676014 -1.86709271 4.29495231 -1 1 C-0.67 0.67 -0.34 0.34 0 0 Z " fill="#68A527" transform="translate(33,31)"/>
<path d="M0 0 C-1.44253657 3.36591866 -3.33264727 5.51047079 -6 8 C-6.99 7.67 -7.98 7.34 -9 7 C-8.34 7 -7.68 7 -7 7 C-6.67 6.01 -6.34 5.02 -6 4 C-2.45714286 0 -2.45714286 0 0 0 Z " fill="#56892A" transform="translate(32,67)"/>
<path d="M0 0 C1.9375 0.3125 1.9375 0.3125 4 1 C4.33 1.99 4.66 2.98 5 4 C3.02 4.33 1.04 4.66 -1 5 C-0.67 3.35 -0.34 1.7 0 0 Z " fill="#FACF6A" transform="translate(53,40)"/>
<path d="M0 0 C0.99 0.33 1.98 0.66 3 1 C2.41196203 4.02419525 1.77321882 7.01758453 1 10 C-1 4.375 -1 4.375 -1 1 C-0.67 0.67 -0.34 0.34 0 0 Z " fill="#589922" transform="translate(30,31)"/>
<path d="M0 0 C3.625 -0.1875 3.625 -0.1875 7 0 C6.34 1.32 5.68 2.64 5 4 C2.69 3.67 0.38 3.34 -2 3 C-1.34 2.01 -0.68 1.02 0 0 Z " fill="#4A8E34" transform="translate(20,20)"/>
<path d="M0 0 C4.40114397 0.50298788 6.71195019 2.08772731 10 5 C6.05140217 4.4359146 3.29120954 3.2568294 0 1 C0 0.67 0 0.34 0 0 Z " fill="#7E9A0E" transform="translate(43,79)"/>
<path d="M0 0 C2.625 0.375 2.625 0.375 5 1 C5.33 1.99 5.66 2.98 6 4 C3.36 3.34 0.72 2.68 -2 2 C-1.34 1.34 -0.68 0.68 0 0 Z " fill="#AEAA12" transform="translate(60,67)"/>
<path d="M0 0 C2.50357861 0.8345262 4.66785852 1.79371992 7 3 C5.35 3.66 3.7 4.32 2 5 C1.01 4.01 0.02 3.02 -1 2 C-0.67 1.34 -0.34 0.68 0 0 Z " fill="#579B25" transform="translate(23,28)"/>
</svg>