<?xml version="1.0" standalone="no"?>
<!DOCTYPE svg PUBLIC "-//W3C//DTD SVG 20010904//EN"
 "http://www.w3.org/TR/2001/REC-SVG-20010904/DTD/svg10.dtd">
<svg version="1.0" xmlns="http://www.w3.org/2000/svg"
 width="100.000000pt" height="100.000000pt" viewBox="0 0 100.000000 100.000000"
 preserveAspectRatio="xMidYMid meet">

<g transform="translate(0.000000,100.000000) scale(0.100000,-0.100000)"
fill="currentColor" stroke="none">
<path d="M420 993 c-94 -15 -221 -83 -284 -153 -270 -299 -107 -764 292 -832
318 -54 618 246 564 565 -47 275 -303 463 -572 420z m150 -43 c192 -30 351
-186 383 -376 23 -132 -26 -283 -127 -391 -50 -54 -55 -57 -122 -67 -38 -6
-110 -11 -159 -11 -88 0 -93 1 -188 47 -76 38 -107 48 -146 48 -57 0 -73 12
-114 89 -161 295 44 644 393 670 8 0 44 -4 80 -9z m140 -854 c0 -7 -101 -38
-106 -33 -3 3 14 12 38 20 44 16 68 20 68 13z"/>
<path d="M358 785 c-6 -14 -16 -24 -22 -23 -6 0 -19 -2 -29 -7 -23 -10 -65 24
-45 37 15 9 -32 11 -56 2 -20 -8 -21 -24 -2 -24 8 0 24 -9 37 -20 l24 -19 -25
-1 c-51 0 -100 -63 -100 -128 0 -43 12 -46 45 -12 32 34 56 39 48 12 -6 -23
10 -85 23 -89 16 -5 49 69 49 113 0 33 -3 40 -12 32 -17 -13 -17 4 -1 20 10
10 5 11 -21 6 -26 -6 -32 -4 -26 6 5 8 20 10 48 6 55 -9 57 -12 46 -49 -6 -17
-13 -97 -17 -177 l-7 -144 -65 -46 -65 -45 61 -7 c34 -3 94 -20 133 -37 39
-16 88 -33 108 -36 33 -5 31 -3 -21 19 -90 38 -135 93 -90 110 18 7 119 -9
161 -25 32 -12 48 -2 31 19 -11 13 -11 14 2 7 16 -10 120 -13 120 -4 0 3 -7
14 -15 25 -19 26 -19 32 6 39 15 5 18 10 9 20 -9 11 -15 10 -31 -6 -13 -13
-25 -17 -32 -11 -7 5 -34 8 -60 8 l-49 -1 -35 60 c-44 72 -42 70 -49 63 -3 -4
1 -19 9 -35 13 -23 13 -36 4 -66 -14 -43 -23 -46 -39 -12 -6 14 -15 25 -19 25
-13 0 -30 39 -35 78 -4 30 13 157 22 170 1 2 26 -15 55 -37 74 -56 82 -51 15
10 -56 51 -70 79 -40 79 8 0 12 5 9 10 -10 16 34 11 93 -9 66 -23 54 -7 -14
18 -27 10 -54 28 -60 40 -6 11 -13 18 -16 15 -4 -3 -9 4 -13 15 -4 13 -11 18
-22 14 -11 -4 -14 -2 -9 5 4 7 5 12 1 12 -3 0 -11 -11 -17 -25z m-108 -75
c-19 -13 -30 -13 -30 0 0 6 10 10 23 10 18 0 19 -2 7 -10z m240 -374 c-14 -14
-24 0 -16 21 6 15 8 15 16 3 6 -9 5 -19 0 -24z m150 -10 c0 -2 3 -11 6 -19 5
-13 0 -14 -30 -5 -25 8 -32 14 -24 20 14 8 48 11 48 4z"/>
<path d="M537 466 c-13 -33 35 -96 73 -96 12 0 -10 42 -46 87 -18 23 -21 24
-27 9z"/>
</g>
</svg>
